G04 EAGLE Gerber RS-274X export*
G75*
%MOMM*%
%FSLAX34Y34*%
%LPD*%
%INCopper Layer 15*%
%IPPOS*%
%AMOC8*
5,1,8,0,0,1.08239X$1,22.5*%
G01*
%ADD10C,1.244600*%
%ADD11C,4.191000*%
%ADD12C,1.044800*%
%ADD13C,0.609600*%

G36*
X758308Y2556D02*
X758308Y2556D01*
X758427Y2563D01*
X758465Y2576D01*
X758506Y2581D01*
X758616Y2624D01*
X758729Y2661D01*
X758764Y2683D01*
X758801Y2698D01*
X758897Y2767D01*
X758998Y2831D01*
X759026Y2861D01*
X759059Y2884D01*
X759135Y2976D01*
X759216Y3063D01*
X759236Y3098D01*
X759261Y3129D01*
X759312Y3237D01*
X759370Y3341D01*
X759380Y3381D01*
X759397Y3417D01*
X759419Y3534D01*
X759449Y3649D01*
X759453Y3709D01*
X759457Y3729D01*
X759455Y3750D01*
X759459Y3810D01*
X759459Y504190D01*
X759444Y504308D01*
X759437Y504427D01*
X759424Y504465D01*
X759419Y504506D01*
X759376Y504616D01*
X759339Y504729D01*
X759317Y504764D01*
X759302Y504801D01*
X759233Y504897D01*
X759169Y504998D01*
X759139Y505026D01*
X759116Y505059D01*
X759024Y505135D01*
X758937Y505216D01*
X758902Y505236D01*
X758871Y505261D01*
X758763Y505312D01*
X758659Y505370D01*
X758619Y505380D01*
X758583Y505397D01*
X758466Y505419D01*
X758351Y505449D01*
X758291Y505453D01*
X758271Y505457D01*
X758250Y505455D01*
X758190Y505459D01*
X3810Y505459D01*
X3692Y505444D01*
X3573Y505437D01*
X3535Y505424D01*
X3494Y505419D01*
X3384Y505376D01*
X3271Y505339D01*
X3236Y505317D01*
X3199Y505302D01*
X3103Y505233D01*
X3002Y505169D01*
X2974Y505139D01*
X2941Y505116D01*
X2865Y505024D01*
X2784Y504937D01*
X2764Y504902D01*
X2739Y504871D01*
X2688Y504763D01*
X2630Y504659D01*
X2620Y504619D01*
X2603Y504583D01*
X2581Y504466D01*
X2551Y504351D01*
X2547Y504291D01*
X2543Y504271D01*
X2545Y504250D01*
X2541Y504190D01*
X2541Y3810D01*
X2556Y3692D01*
X2563Y3573D01*
X2576Y3535D01*
X2581Y3494D01*
X2624Y3384D01*
X2661Y3271D01*
X2683Y3236D01*
X2698Y3199D01*
X2767Y3103D01*
X2831Y3002D01*
X2861Y2974D01*
X2884Y2941D01*
X2976Y2865D01*
X3063Y2784D01*
X3098Y2764D01*
X3129Y2739D01*
X3237Y2688D01*
X3341Y2630D01*
X3381Y2620D01*
X3417Y2603D01*
X3534Y2581D01*
X3649Y2551D01*
X3709Y2547D01*
X3729Y2543D01*
X3750Y2545D01*
X3810Y2541D01*
X758190Y2541D01*
X758308Y2556D01*
G37*
%LPC*%
G36*
X604926Y452754D02*
X604926Y452754D01*
X596291Y456331D01*
X589681Y462941D01*
X586104Y471576D01*
X586104Y480924D01*
X589681Y489559D01*
X596291Y496169D01*
X604926Y499746D01*
X614274Y499746D01*
X622909Y496169D01*
X629519Y489559D01*
X633096Y480924D01*
X633096Y471576D01*
X629519Y462941D01*
X622909Y456331D01*
X614274Y452754D01*
X604926Y452754D01*
G37*
%LPD*%
%LPC*%
G36*
X27076Y452754D02*
X27076Y452754D01*
X18441Y456331D01*
X11831Y462941D01*
X8254Y471576D01*
X8254Y480924D01*
X11831Y489559D01*
X18441Y496169D01*
X27076Y499746D01*
X36424Y499746D01*
X45059Y496169D01*
X51669Y489559D01*
X55246Y480924D01*
X55246Y471576D01*
X51669Y462941D01*
X45059Y456331D01*
X36424Y452754D01*
X27076Y452754D01*
G37*
%LPD*%
%LPC*%
G36*
X27076Y8254D02*
X27076Y8254D01*
X18441Y11831D01*
X11831Y18441D01*
X8254Y27076D01*
X8254Y36424D01*
X11831Y45059D01*
X18441Y51669D01*
X27076Y55246D01*
X36424Y55246D01*
X45059Y51669D01*
X51669Y45059D01*
X55246Y36424D01*
X55246Y27076D01*
X51669Y18441D01*
X45059Y11831D01*
X36424Y8254D01*
X27076Y8254D01*
G37*
%LPD*%
%LPC*%
G36*
X719226Y8254D02*
X719226Y8254D01*
X710591Y11831D01*
X703981Y18441D01*
X700404Y27076D01*
X700404Y36424D01*
X703981Y45059D01*
X710591Y51669D01*
X719226Y55246D01*
X728574Y55246D01*
X737209Y51669D01*
X743819Y45059D01*
X747396Y36424D01*
X747396Y27076D01*
X743819Y18441D01*
X737209Y11831D01*
X728574Y8254D01*
X719226Y8254D01*
G37*
%LPD*%
%LPC*%
G36*
X531657Y473836D02*
X531657Y473836D01*
X528436Y475170D01*
X525970Y477636D01*
X524636Y480857D01*
X524636Y484343D01*
X525970Y487564D01*
X528436Y490030D01*
X531657Y491364D01*
X535143Y491364D01*
X538364Y490030D01*
X540830Y487564D01*
X542164Y484343D01*
X542164Y480857D01*
X540830Y477636D01*
X538364Y475170D01*
X535143Y473836D01*
X531657Y473836D01*
G37*
%LPD*%
%LPC*%
G36*
X480857Y473836D02*
X480857Y473836D01*
X477636Y475170D01*
X475170Y477636D01*
X473836Y480857D01*
X473836Y484343D01*
X475170Y487564D01*
X477636Y490030D01*
X480857Y491364D01*
X484343Y491364D01*
X487564Y490030D01*
X490030Y487564D01*
X491364Y484343D01*
X491364Y480857D01*
X490030Y477636D01*
X487564Y475170D01*
X484343Y473836D01*
X480857Y473836D01*
G37*
%LPD*%
%LPC*%
G36*
X586857Y44836D02*
X586857Y44836D01*
X583636Y46170D01*
X581170Y48636D01*
X579836Y51857D01*
X579836Y55343D01*
X581170Y58564D01*
X583636Y61030D01*
X586857Y62364D01*
X590343Y62364D01*
X593564Y61030D01*
X596030Y58564D01*
X597364Y55343D01*
X597364Y51857D01*
X596030Y48636D01*
X593564Y46170D01*
X590343Y44836D01*
X586857Y44836D01*
G37*
%LPD*%
%LPC*%
G36*
X561457Y44836D02*
X561457Y44836D01*
X558236Y46170D01*
X555770Y48636D01*
X554436Y51857D01*
X554436Y55343D01*
X555770Y58564D01*
X558236Y61030D01*
X561457Y62364D01*
X564943Y62364D01*
X568164Y61030D01*
X570630Y58564D01*
X571964Y55343D01*
X571964Y51857D01*
X570630Y48636D01*
X568164Y46170D01*
X564943Y44836D01*
X561457Y44836D01*
G37*
%LPD*%
%LPC*%
G36*
X536057Y44836D02*
X536057Y44836D01*
X532836Y46170D01*
X530370Y48636D01*
X529036Y51857D01*
X529036Y55343D01*
X530370Y58564D01*
X532836Y61030D01*
X536057Y62364D01*
X539543Y62364D01*
X542764Y61030D01*
X545230Y58564D01*
X546564Y55343D01*
X546564Y51857D01*
X545230Y48636D01*
X542764Y46170D01*
X539543Y44836D01*
X536057Y44836D01*
G37*
%LPD*%
%LPC*%
G36*
X510657Y44836D02*
X510657Y44836D01*
X507436Y46170D01*
X504970Y48636D01*
X503636Y51857D01*
X503636Y55343D01*
X504970Y58564D01*
X507436Y61030D01*
X510657Y62364D01*
X514143Y62364D01*
X517364Y61030D01*
X519830Y58564D01*
X521164Y55343D01*
X521164Y51857D01*
X519830Y48636D01*
X517364Y46170D01*
X514143Y44836D01*
X510657Y44836D01*
G37*
%LPD*%
%LPC*%
G36*
X74457Y461136D02*
X74457Y461136D01*
X71236Y462470D01*
X68770Y464936D01*
X67436Y468157D01*
X67436Y471643D01*
X68770Y474864D01*
X71236Y477330D01*
X74457Y478664D01*
X77943Y478664D01*
X81164Y477330D01*
X83630Y474864D01*
X84964Y471643D01*
X84964Y468157D01*
X83630Y464936D01*
X81164Y462470D01*
X77943Y461136D01*
X74457Y461136D01*
G37*
%LPD*%
%LPC*%
G36*
X485257Y44836D02*
X485257Y44836D01*
X482036Y46170D01*
X479570Y48636D01*
X478236Y51857D01*
X478236Y55343D01*
X479570Y58564D01*
X482036Y61030D01*
X485257Y62364D01*
X488743Y62364D01*
X491964Y61030D01*
X494430Y58564D01*
X495764Y55343D01*
X495764Y51857D01*
X494430Y48636D01*
X491964Y46170D01*
X488743Y44836D01*
X485257Y44836D01*
G37*
%LPD*%
%LPC*%
G36*
X74457Y29336D02*
X74457Y29336D01*
X71236Y30670D01*
X68770Y33136D01*
X67436Y36357D01*
X67436Y39843D01*
X68770Y43064D01*
X71236Y45530D01*
X74457Y46864D01*
X77943Y46864D01*
X81164Y45530D01*
X83630Y43064D01*
X84964Y39843D01*
X84964Y36357D01*
X83630Y33136D01*
X81164Y30670D01*
X77943Y29336D01*
X74457Y29336D01*
G37*
%LPD*%
%LPC*%
G36*
X434457Y44836D02*
X434457Y44836D01*
X431236Y46170D01*
X428770Y48636D01*
X427436Y51857D01*
X427436Y55343D01*
X428770Y58564D01*
X431236Y61030D01*
X434457Y62364D01*
X437943Y62364D01*
X441164Y61030D01*
X443630Y58564D01*
X444964Y55343D01*
X444964Y51857D01*
X443630Y48636D01*
X441164Y46170D01*
X437943Y44836D01*
X434457Y44836D01*
G37*
%LPD*%
%LPC*%
G36*
X409057Y44836D02*
X409057Y44836D01*
X405836Y46170D01*
X403370Y48636D01*
X402036Y51857D01*
X402036Y55343D01*
X403370Y58564D01*
X405836Y61030D01*
X409057Y62364D01*
X412543Y62364D01*
X415764Y61030D01*
X418230Y58564D01*
X419564Y55343D01*
X419564Y51857D01*
X418230Y48636D01*
X415764Y46170D01*
X412543Y44836D01*
X409057Y44836D01*
G37*
%LPD*%
%LPC*%
G36*
X383657Y44836D02*
X383657Y44836D01*
X380436Y46170D01*
X377970Y48636D01*
X376636Y51857D01*
X376636Y55343D01*
X377970Y58564D01*
X380436Y61030D01*
X383657Y62364D01*
X387143Y62364D01*
X390364Y61030D01*
X392830Y58564D01*
X394164Y55343D01*
X394164Y51857D01*
X392830Y48636D01*
X390364Y46170D01*
X387143Y44836D01*
X383657Y44836D01*
G37*
%LPD*%
%LPC*%
G36*
X637657Y324236D02*
X637657Y324236D01*
X634436Y325570D01*
X631970Y328036D01*
X630636Y331257D01*
X630636Y334743D01*
X631970Y337964D01*
X634436Y340430D01*
X637657Y341764D01*
X641143Y341764D01*
X644364Y340430D01*
X646830Y337964D01*
X648164Y334743D01*
X648164Y331257D01*
X646830Y328036D01*
X644364Y325570D01*
X641143Y324236D01*
X637657Y324236D01*
G37*
%LPD*%
%LPC*%
G36*
X358257Y44836D02*
X358257Y44836D01*
X355036Y46170D01*
X352570Y48636D01*
X351236Y51857D01*
X351236Y55343D01*
X352570Y58564D01*
X355036Y61030D01*
X358257Y62364D01*
X361743Y62364D01*
X364964Y61030D01*
X367430Y58564D01*
X368764Y55343D01*
X368764Y51857D01*
X367430Y48636D01*
X364964Y46170D01*
X361743Y44836D01*
X358257Y44836D01*
G37*
%LPD*%
%LPC*%
G36*
X332857Y44836D02*
X332857Y44836D01*
X329636Y46170D01*
X327170Y48636D01*
X325836Y51857D01*
X325836Y55343D01*
X327170Y58564D01*
X329636Y61030D01*
X332857Y62364D01*
X336343Y62364D01*
X339564Y61030D01*
X342030Y58564D01*
X343364Y55343D01*
X343364Y51857D01*
X342030Y48636D01*
X339564Y46170D01*
X336343Y44836D01*
X332857Y44836D01*
G37*
%LPD*%
%LPC*%
G36*
X150657Y435736D02*
X150657Y435736D01*
X147436Y437070D01*
X144970Y439536D01*
X143636Y442757D01*
X143636Y446243D01*
X144970Y449464D01*
X147436Y451930D01*
X150657Y453264D01*
X154143Y453264D01*
X157364Y451930D01*
X159830Y449464D01*
X161164Y446243D01*
X161164Y442757D01*
X159830Y439536D01*
X157364Y437070D01*
X154143Y435736D01*
X150657Y435736D01*
G37*
%LPD*%
%LPC*%
G36*
X307457Y44836D02*
X307457Y44836D01*
X304236Y46170D01*
X301770Y48636D01*
X300436Y51857D01*
X300436Y55343D01*
X301770Y58564D01*
X304236Y61030D01*
X307457Y62364D01*
X310943Y62364D01*
X314164Y61030D01*
X316630Y58564D01*
X317964Y55343D01*
X317964Y51857D01*
X316630Y48636D01*
X314164Y46170D01*
X310943Y44836D01*
X307457Y44836D01*
G37*
%LPD*%
%LPC*%
G36*
X282057Y44836D02*
X282057Y44836D01*
X278836Y46170D01*
X276370Y48636D01*
X275036Y51857D01*
X275036Y55343D01*
X276370Y58564D01*
X278836Y61030D01*
X282057Y62364D01*
X285543Y62364D01*
X288764Y61030D01*
X291230Y58564D01*
X292564Y55343D01*
X292564Y51857D01*
X291230Y48636D01*
X288764Y46170D01*
X285543Y44836D01*
X282057Y44836D01*
G37*
%LPD*%
%LPC*%
G36*
X256657Y44836D02*
X256657Y44836D01*
X253436Y46170D01*
X250970Y48636D01*
X249636Y51857D01*
X249636Y55343D01*
X250970Y58564D01*
X253436Y61030D01*
X256657Y62364D01*
X260143Y62364D01*
X263364Y61030D01*
X265830Y58564D01*
X267164Y55343D01*
X267164Y51857D01*
X265830Y48636D01*
X263364Y46170D01*
X260143Y44836D01*
X256657Y44836D01*
G37*
%LPD*%
%LPC*%
G36*
X231257Y44836D02*
X231257Y44836D01*
X228036Y46170D01*
X225570Y48636D01*
X224236Y51857D01*
X224236Y55343D01*
X225570Y58564D01*
X228036Y61030D01*
X231257Y62364D01*
X234743Y62364D01*
X237964Y61030D01*
X240430Y58564D01*
X241764Y55343D01*
X241764Y51857D01*
X240430Y48636D01*
X237964Y46170D01*
X234743Y44836D01*
X231257Y44836D01*
G37*
%LPD*%
%LPC*%
G36*
X150657Y29336D02*
X150657Y29336D01*
X147436Y30670D01*
X144970Y33136D01*
X143636Y36357D01*
X143636Y39843D01*
X144970Y43064D01*
X147436Y45530D01*
X150657Y46864D01*
X154143Y46864D01*
X157364Y45530D01*
X159830Y43064D01*
X161164Y39843D01*
X161164Y36357D01*
X159830Y33136D01*
X157364Y30670D01*
X154143Y29336D01*
X150657Y29336D01*
G37*
%LPD*%
%LPC*%
G36*
X74457Y410336D02*
X74457Y410336D01*
X71236Y411670D01*
X68770Y414136D01*
X67436Y417357D01*
X67436Y420843D01*
X68770Y424064D01*
X71236Y426530D01*
X74457Y427864D01*
X77943Y427864D01*
X81164Y426530D01*
X83630Y424064D01*
X84964Y420843D01*
X84964Y417357D01*
X83630Y414136D01*
X81164Y411670D01*
X77943Y410336D01*
X74457Y410336D01*
G37*
%LPD*%
%LPC*%
G36*
X74457Y384936D02*
X74457Y384936D01*
X71236Y386270D01*
X68770Y388736D01*
X67436Y391957D01*
X67436Y395443D01*
X68770Y398664D01*
X71236Y401130D01*
X74457Y402464D01*
X77943Y402464D01*
X81164Y401130D01*
X83630Y398664D01*
X84964Y395443D01*
X84964Y391957D01*
X83630Y388736D01*
X81164Y386270D01*
X77943Y384936D01*
X74457Y384936D01*
G37*
%LPD*%
%LPC*%
G36*
X74457Y359536D02*
X74457Y359536D01*
X71236Y360870D01*
X68770Y363336D01*
X67436Y366557D01*
X67436Y370043D01*
X68770Y373264D01*
X71236Y375730D01*
X74457Y377064D01*
X77943Y377064D01*
X81164Y375730D01*
X83630Y373264D01*
X84964Y370043D01*
X84964Y366557D01*
X83630Y363336D01*
X81164Y360870D01*
X77943Y359536D01*
X74457Y359536D01*
G37*
%LPD*%
%LPC*%
G36*
X74457Y334136D02*
X74457Y334136D01*
X71236Y335470D01*
X68770Y337936D01*
X67436Y341157D01*
X67436Y344643D01*
X68770Y347864D01*
X71236Y350330D01*
X74457Y351664D01*
X77943Y351664D01*
X81164Y350330D01*
X83630Y347864D01*
X84964Y344643D01*
X84964Y341157D01*
X83630Y337936D01*
X81164Y335470D01*
X77943Y334136D01*
X74457Y334136D01*
G37*
%LPD*%
%LPC*%
G36*
X663057Y324236D02*
X663057Y324236D01*
X659836Y325570D01*
X657370Y328036D01*
X656036Y331257D01*
X656036Y334743D01*
X657370Y337964D01*
X659836Y340430D01*
X663057Y341764D01*
X666543Y341764D01*
X669764Y340430D01*
X672230Y337964D01*
X673564Y334743D01*
X673564Y331257D01*
X672230Y328036D01*
X669764Y325570D01*
X666543Y324236D01*
X663057Y324236D01*
G37*
%LPD*%
%LPC*%
G36*
X612257Y324236D02*
X612257Y324236D01*
X609036Y325570D01*
X606570Y328036D01*
X605236Y331257D01*
X605236Y334743D01*
X606570Y337964D01*
X609036Y340430D01*
X612257Y341764D01*
X615743Y341764D01*
X618964Y340430D01*
X621430Y337964D01*
X622764Y334743D01*
X622764Y331257D01*
X621430Y328036D01*
X618964Y325570D01*
X615743Y324236D01*
X612257Y324236D01*
G37*
%LPD*%
%LPC*%
G36*
X586857Y324236D02*
X586857Y324236D01*
X583636Y325570D01*
X581170Y328036D01*
X579836Y331257D01*
X579836Y334743D01*
X581170Y337964D01*
X583636Y340430D01*
X586857Y341764D01*
X590343Y341764D01*
X593564Y340430D01*
X596030Y337964D01*
X597364Y334743D01*
X597364Y331257D01*
X596030Y328036D01*
X593564Y325570D01*
X590343Y324236D01*
X586857Y324236D01*
G37*
%LPD*%
%LPC*%
G36*
X561457Y324236D02*
X561457Y324236D01*
X558236Y325570D01*
X555770Y328036D01*
X554436Y331257D01*
X554436Y334743D01*
X555770Y337964D01*
X558236Y340430D01*
X561457Y341764D01*
X564943Y341764D01*
X568164Y340430D01*
X570630Y337964D01*
X571964Y334743D01*
X571964Y331257D01*
X570630Y328036D01*
X568164Y325570D01*
X564943Y324236D01*
X561457Y324236D01*
G37*
%LPD*%
%LPC*%
G36*
X536057Y324236D02*
X536057Y324236D01*
X532836Y325570D01*
X530370Y328036D01*
X529036Y331257D01*
X529036Y334743D01*
X530370Y337964D01*
X532836Y340430D01*
X536057Y341764D01*
X539543Y341764D01*
X542764Y340430D01*
X545230Y337964D01*
X546564Y334743D01*
X546564Y331257D01*
X545230Y328036D01*
X542764Y325570D01*
X539543Y324236D01*
X536057Y324236D01*
G37*
%LPD*%
%LPC*%
G36*
X510657Y324236D02*
X510657Y324236D01*
X507436Y325570D01*
X504970Y328036D01*
X503636Y331257D01*
X503636Y334743D01*
X504970Y337964D01*
X507436Y340430D01*
X510657Y341764D01*
X514143Y341764D01*
X517364Y340430D01*
X519830Y337964D01*
X521164Y334743D01*
X521164Y331257D01*
X519830Y328036D01*
X517364Y325570D01*
X514143Y324236D01*
X510657Y324236D01*
G37*
%LPD*%
%LPC*%
G36*
X485257Y324236D02*
X485257Y324236D01*
X482036Y325570D01*
X479570Y328036D01*
X478236Y331257D01*
X478236Y334743D01*
X479570Y337964D01*
X482036Y340430D01*
X485257Y341764D01*
X488743Y341764D01*
X491964Y340430D01*
X494430Y337964D01*
X495764Y334743D01*
X495764Y331257D01*
X494430Y328036D01*
X491964Y325570D01*
X488743Y324236D01*
X485257Y324236D01*
G37*
%LPD*%
%LPC*%
G36*
X459857Y324236D02*
X459857Y324236D01*
X456636Y325570D01*
X454170Y328036D01*
X452836Y331257D01*
X452836Y334743D01*
X454170Y337964D01*
X456636Y340430D01*
X459857Y341764D01*
X463343Y341764D01*
X466564Y340430D01*
X469030Y337964D01*
X470364Y334743D01*
X470364Y331257D01*
X469030Y328036D01*
X466564Y325570D01*
X463343Y324236D01*
X459857Y324236D01*
G37*
%LPD*%
%LPC*%
G36*
X434457Y324236D02*
X434457Y324236D01*
X431236Y325570D01*
X428770Y328036D01*
X427436Y331257D01*
X427436Y334743D01*
X428770Y337964D01*
X431236Y340430D01*
X434457Y341764D01*
X437943Y341764D01*
X441164Y340430D01*
X443630Y337964D01*
X444964Y334743D01*
X444964Y331257D01*
X443630Y328036D01*
X441164Y325570D01*
X437943Y324236D01*
X434457Y324236D01*
G37*
%LPD*%
%LPC*%
G36*
X409057Y324236D02*
X409057Y324236D01*
X405836Y325570D01*
X403370Y328036D01*
X402036Y331257D01*
X402036Y334743D01*
X403370Y337964D01*
X405836Y340430D01*
X409057Y341764D01*
X412543Y341764D01*
X415764Y340430D01*
X418230Y337964D01*
X419564Y334743D01*
X419564Y331257D01*
X418230Y328036D01*
X415764Y325570D01*
X412543Y324236D01*
X409057Y324236D01*
G37*
%LPD*%
%LPC*%
G36*
X383657Y324236D02*
X383657Y324236D01*
X380436Y325570D01*
X377970Y328036D01*
X376636Y331257D01*
X376636Y334743D01*
X377970Y337964D01*
X380436Y340430D01*
X383657Y341764D01*
X387143Y341764D01*
X390364Y340430D01*
X392830Y337964D01*
X394164Y334743D01*
X394164Y331257D01*
X392830Y328036D01*
X390364Y325570D01*
X387143Y324236D01*
X383657Y324236D01*
G37*
%LPD*%
%LPC*%
G36*
X358257Y324236D02*
X358257Y324236D01*
X355036Y325570D01*
X352570Y328036D01*
X351236Y331257D01*
X351236Y334743D01*
X352570Y337964D01*
X355036Y340430D01*
X358257Y341764D01*
X361743Y341764D01*
X364964Y340430D01*
X367430Y337964D01*
X368764Y334743D01*
X368764Y331257D01*
X367430Y328036D01*
X364964Y325570D01*
X361743Y324236D01*
X358257Y324236D01*
G37*
%LPD*%
%LPC*%
G36*
X332857Y324236D02*
X332857Y324236D01*
X329636Y325570D01*
X327170Y328036D01*
X325836Y331257D01*
X325836Y334743D01*
X327170Y337964D01*
X329636Y340430D01*
X332857Y341764D01*
X336343Y341764D01*
X339564Y340430D01*
X342030Y337964D01*
X343364Y334743D01*
X343364Y331257D01*
X342030Y328036D01*
X339564Y325570D01*
X336343Y324236D01*
X332857Y324236D01*
G37*
%LPD*%
%LPC*%
G36*
X307457Y324236D02*
X307457Y324236D01*
X304236Y325570D01*
X301770Y328036D01*
X300436Y331257D01*
X300436Y334743D01*
X301770Y337964D01*
X304236Y340430D01*
X307457Y341764D01*
X310943Y341764D01*
X314164Y340430D01*
X316630Y337964D01*
X317964Y334743D01*
X317964Y331257D01*
X316630Y328036D01*
X314164Y325570D01*
X310943Y324236D01*
X307457Y324236D01*
G37*
%LPD*%
%LPC*%
G36*
X282057Y324236D02*
X282057Y324236D01*
X278836Y325570D01*
X276370Y328036D01*
X275036Y331257D01*
X275036Y334743D01*
X276370Y337964D01*
X278836Y340430D01*
X282057Y341764D01*
X285543Y341764D01*
X288764Y340430D01*
X291230Y337964D01*
X292564Y334743D01*
X292564Y331257D01*
X291230Y328036D01*
X288764Y325570D01*
X285543Y324236D01*
X282057Y324236D01*
G37*
%LPD*%
%LPC*%
G36*
X256657Y324236D02*
X256657Y324236D01*
X253436Y325570D01*
X250970Y328036D01*
X249636Y331257D01*
X249636Y334743D01*
X250970Y337964D01*
X253436Y340430D01*
X256657Y341764D01*
X260143Y341764D01*
X263364Y340430D01*
X265830Y337964D01*
X267164Y334743D01*
X267164Y331257D01*
X265830Y328036D01*
X263364Y325570D01*
X260143Y324236D01*
X256657Y324236D01*
G37*
%LPD*%
%LPC*%
G36*
X231257Y324236D02*
X231257Y324236D01*
X228036Y325570D01*
X225570Y328036D01*
X224236Y331257D01*
X224236Y334743D01*
X225570Y337964D01*
X228036Y340430D01*
X231257Y341764D01*
X234743Y341764D01*
X237964Y340430D01*
X240430Y337964D01*
X241764Y334743D01*
X241764Y331257D01*
X240430Y328036D01*
X237964Y325570D01*
X234743Y324236D01*
X231257Y324236D01*
G37*
%LPD*%
%LPC*%
G36*
X74457Y308736D02*
X74457Y308736D01*
X71236Y310070D01*
X68770Y312536D01*
X67436Y315757D01*
X67436Y319243D01*
X68770Y322464D01*
X71236Y324930D01*
X74457Y326264D01*
X77943Y326264D01*
X81164Y324930D01*
X83630Y322464D01*
X84964Y319243D01*
X84964Y315757D01*
X83630Y312536D01*
X81164Y310070D01*
X77943Y308736D01*
X74457Y308736D01*
G37*
%LPD*%
%LPC*%
G36*
X256657Y298836D02*
X256657Y298836D01*
X253436Y300170D01*
X250970Y302636D01*
X249636Y305857D01*
X249636Y309343D01*
X250970Y312564D01*
X253436Y315030D01*
X256657Y316364D01*
X260143Y316364D01*
X263364Y315030D01*
X265830Y312564D01*
X267164Y309343D01*
X267164Y305857D01*
X265830Y302636D01*
X263364Y300170D01*
X260143Y298836D01*
X256657Y298836D01*
G37*
%LPD*%
%LPC*%
G36*
X231257Y298836D02*
X231257Y298836D01*
X228036Y300170D01*
X225570Y302636D01*
X224236Y305857D01*
X224236Y309343D01*
X225570Y312564D01*
X228036Y315030D01*
X231257Y316364D01*
X234743Y316364D01*
X237964Y315030D01*
X240430Y312564D01*
X241764Y309343D01*
X241764Y305857D01*
X240430Y302636D01*
X237964Y300170D01*
X234743Y298836D01*
X231257Y298836D01*
G37*
%LPD*%
%LPC*%
G36*
X663057Y298836D02*
X663057Y298836D01*
X659836Y300170D01*
X657370Y302636D01*
X656036Y305857D01*
X656036Y309343D01*
X657370Y312564D01*
X659836Y315030D01*
X663057Y316364D01*
X666543Y316364D01*
X669764Y315030D01*
X672230Y312564D01*
X673564Y309343D01*
X673564Y305857D01*
X672230Y302636D01*
X669764Y300170D01*
X666543Y298836D01*
X663057Y298836D01*
G37*
%LPD*%
%LPC*%
G36*
X637657Y298836D02*
X637657Y298836D01*
X634436Y300170D01*
X631970Y302636D01*
X630636Y305857D01*
X630636Y309343D01*
X631970Y312564D01*
X634436Y315030D01*
X637657Y316364D01*
X641143Y316364D01*
X644364Y315030D01*
X646830Y312564D01*
X648164Y309343D01*
X648164Y305857D01*
X646830Y302636D01*
X644364Y300170D01*
X641143Y298836D01*
X637657Y298836D01*
G37*
%LPD*%
%LPC*%
G36*
X612257Y298836D02*
X612257Y298836D01*
X609036Y300170D01*
X606570Y302636D01*
X605236Y305857D01*
X605236Y309343D01*
X606570Y312564D01*
X609036Y315030D01*
X612257Y316364D01*
X615743Y316364D01*
X618964Y315030D01*
X621430Y312564D01*
X622764Y309343D01*
X622764Y305857D01*
X621430Y302636D01*
X618964Y300170D01*
X615743Y298836D01*
X612257Y298836D01*
G37*
%LPD*%
%LPC*%
G36*
X586857Y298836D02*
X586857Y298836D01*
X583636Y300170D01*
X581170Y302636D01*
X579836Y305857D01*
X579836Y309343D01*
X581170Y312564D01*
X583636Y315030D01*
X586857Y316364D01*
X590343Y316364D01*
X593564Y315030D01*
X596030Y312564D01*
X597364Y309343D01*
X597364Y305857D01*
X596030Y302636D01*
X593564Y300170D01*
X590343Y298836D01*
X586857Y298836D01*
G37*
%LPD*%
%LPC*%
G36*
X561457Y298836D02*
X561457Y298836D01*
X558236Y300170D01*
X555770Y302636D01*
X554436Y305857D01*
X554436Y309343D01*
X555770Y312564D01*
X558236Y315030D01*
X561457Y316364D01*
X564943Y316364D01*
X568164Y315030D01*
X570630Y312564D01*
X571964Y309343D01*
X571964Y305857D01*
X570630Y302636D01*
X568164Y300170D01*
X564943Y298836D01*
X561457Y298836D01*
G37*
%LPD*%
%LPC*%
G36*
X536057Y298836D02*
X536057Y298836D01*
X532836Y300170D01*
X530370Y302636D01*
X529036Y305857D01*
X529036Y309343D01*
X530370Y312564D01*
X532836Y315030D01*
X536057Y316364D01*
X539543Y316364D01*
X542764Y315030D01*
X545230Y312564D01*
X546564Y309343D01*
X546564Y305857D01*
X545230Y302636D01*
X542764Y300170D01*
X539543Y298836D01*
X536057Y298836D01*
G37*
%LPD*%
%LPC*%
G36*
X510657Y298836D02*
X510657Y298836D01*
X507436Y300170D01*
X504970Y302636D01*
X503636Y305857D01*
X503636Y309343D01*
X504970Y312564D01*
X507436Y315030D01*
X510657Y316364D01*
X514143Y316364D01*
X517364Y315030D01*
X519830Y312564D01*
X521164Y309343D01*
X521164Y305857D01*
X519830Y302636D01*
X517364Y300170D01*
X514143Y298836D01*
X510657Y298836D01*
G37*
%LPD*%
%LPC*%
G36*
X485257Y298836D02*
X485257Y298836D01*
X482036Y300170D01*
X479570Y302636D01*
X478236Y305857D01*
X478236Y309343D01*
X479570Y312564D01*
X482036Y315030D01*
X485257Y316364D01*
X488743Y316364D01*
X491964Y315030D01*
X494430Y312564D01*
X495764Y309343D01*
X495764Y305857D01*
X494430Y302636D01*
X491964Y300170D01*
X488743Y298836D01*
X485257Y298836D01*
G37*
%LPD*%
%LPC*%
G36*
X459857Y298836D02*
X459857Y298836D01*
X456636Y300170D01*
X454170Y302636D01*
X452836Y305857D01*
X452836Y309343D01*
X454170Y312564D01*
X456636Y315030D01*
X459857Y316364D01*
X463343Y316364D01*
X466564Y315030D01*
X469030Y312564D01*
X470364Y309343D01*
X470364Y305857D01*
X469030Y302636D01*
X466564Y300170D01*
X463343Y298836D01*
X459857Y298836D01*
G37*
%LPD*%
%LPC*%
G36*
X434457Y298836D02*
X434457Y298836D01*
X431236Y300170D01*
X428770Y302636D01*
X427436Y305857D01*
X427436Y309343D01*
X428770Y312564D01*
X431236Y315030D01*
X434457Y316364D01*
X437943Y316364D01*
X441164Y315030D01*
X443630Y312564D01*
X444964Y309343D01*
X444964Y305857D01*
X443630Y302636D01*
X441164Y300170D01*
X437943Y298836D01*
X434457Y298836D01*
G37*
%LPD*%
%LPC*%
G36*
X409057Y298836D02*
X409057Y298836D01*
X405836Y300170D01*
X403370Y302636D01*
X402036Y305857D01*
X402036Y309343D01*
X403370Y312564D01*
X405836Y315030D01*
X409057Y316364D01*
X412543Y316364D01*
X415764Y315030D01*
X418230Y312564D01*
X419564Y309343D01*
X419564Y305857D01*
X418230Y302636D01*
X415764Y300170D01*
X412543Y298836D01*
X409057Y298836D01*
G37*
%LPD*%
%LPC*%
G36*
X358257Y298836D02*
X358257Y298836D01*
X355036Y300170D01*
X352570Y302636D01*
X351236Y305857D01*
X351236Y309343D01*
X352570Y312564D01*
X355036Y315030D01*
X358257Y316364D01*
X361743Y316364D01*
X364964Y315030D01*
X367430Y312564D01*
X368764Y309343D01*
X368764Y305857D01*
X367430Y302636D01*
X364964Y300170D01*
X361743Y298836D01*
X358257Y298836D01*
G37*
%LPD*%
%LPC*%
G36*
X332857Y298836D02*
X332857Y298836D01*
X329636Y300170D01*
X327170Y302636D01*
X325836Y305857D01*
X325836Y309343D01*
X327170Y312564D01*
X329636Y315030D01*
X332857Y316364D01*
X336343Y316364D01*
X339564Y315030D01*
X342030Y312564D01*
X343364Y309343D01*
X343364Y305857D01*
X342030Y302636D01*
X339564Y300170D01*
X336343Y298836D01*
X332857Y298836D01*
G37*
%LPD*%
%LPC*%
G36*
X307457Y298836D02*
X307457Y298836D01*
X304236Y300170D01*
X301770Y302636D01*
X300436Y305857D01*
X300436Y309343D01*
X301770Y312564D01*
X304236Y315030D01*
X307457Y316364D01*
X310943Y316364D01*
X314164Y315030D01*
X316630Y312564D01*
X317964Y309343D01*
X317964Y305857D01*
X316630Y302636D01*
X314164Y300170D01*
X310943Y298836D01*
X307457Y298836D01*
G37*
%LPD*%
%LPC*%
G36*
X282057Y298836D02*
X282057Y298836D01*
X278836Y300170D01*
X276370Y302636D01*
X275036Y305857D01*
X275036Y309343D01*
X276370Y312564D01*
X278836Y315030D01*
X282057Y316364D01*
X285543Y316364D01*
X288764Y315030D01*
X291230Y312564D01*
X292564Y309343D01*
X292564Y305857D01*
X291230Y302636D01*
X288764Y300170D01*
X285543Y298836D01*
X282057Y298836D01*
G37*
%LPD*%
%LPC*%
G36*
X74457Y283336D02*
X74457Y283336D01*
X71236Y284670D01*
X68770Y287136D01*
X67436Y290357D01*
X67436Y293843D01*
X68770Y297064D01*
X71236Y299530D01*
X74457Y300864D01*
X77943Y300864D01*
X81164Y299530D01*
X83630Y297064D01*
X84964Y293843D01*
X84964Y290357D01*
X83630Y287136D01*
X81164Y284670D01*
X77943Y283336D01*
X74457Y283336D01*
G37*
%LPD*%
%LPC*%
G36*
X74457Y257936D02*
X74457Y257936D01*
X71236Y259270D01*
X68770Y261736D01*
X67436Y264957D01*
X67436Y268443D01*
X68770Y271664D01*
X71236Y274130D01*
X74457Y275464D01*
X77943Y275464D01*
X81164Y274130D01*
X83630Y271664D01*
X84964Y268443D01*
X84964Y264957D01*
X83630Y261736D01*
X81164Y259270D01*
X77943Y257936D01*
X74457Y257936D01*
G37*
%LPD*%
%LPC*%
G36*
X74457Y232536D02*
X74457Y232536D01*
X71236Y233870D01*
X68770Y236336D01*
X67436Y239557D01*
X67436Y243043D01*
X68770Y246264D01*
X71236Y248730D01*
X74457Y250064D01*
X77943Y250064D01*
X81164Y248730D01*
X83630Y246264D01*
X84964Y243043D01*
X84964Y239557D01*
X83630Y236336D01*
X81164Y233870D01*
X77943Y232536D01*
X74457Y232536D01*
G37*
%LPD*%
%LPC*%
G36*
X74457Y207136D02*
X74457Y207136D01*
X71236Y208470D01*
X68770Y210936D01*
X67436Y214157D01*
X67436Y217643D01*
X68770Y220864D01*
X71236Y223330D01*
X74457Y224664D01*
X77943Y224664D01*
X81164Y223330D01*
X83630Y220864D01*
X84964Y217643D01*
X84964Y214157D01*
X83630Y210936D01*
X81164Y208470D01*
X77943Y207136D01*
X74457Y207136D01*
G37*
%LPD*%
%LPC*%
G36*
X74457Y181736D02*
X74457Y181736D01*
X71236Y183070D01*
X68770Y185536D01*
X67436Y188757D01*
X67436Y192243D01*
X68770Y195464D01*
X71236Y197930D01*
X74457Y199264D01*
X77943Y199264D01*
X81164Y197930D01*
X83630Y195464D01*
X84964Y192243D01*
X84964Y188757D01*
X83630Y185536D01*
X81164Y183070D01*
X77943Y181736D01*
X74457Y181736D01*
G37*
%LPD*%
%LPC*%
G36*
X74457Y156336D02*
X74457Y156336D01*
X71236Y157670D01*
X68770Y160136D01*
X67436Y163357D01*
X67436Y166843D01*
X68770Y170064D01*
X71236Y172530D01*
X74457Y173864D01*
X77943Y173864D01*
X81164Y172530D01*
X83630Y170064D01*
X84964Y166843D01*
X84964Y163357D01*
X83630Y160136D01*
X81164Y157670D01*
X77943Y156336D01*
X74457Y156336D01*
G37*
%LPD*%
%LPC*%
G36*
X74457Y130936D02*
X74457Y130936D01*
X71236Y132270D01*
X68770Y134736D01*
X67436Y137957D01*
X67436Y141443D01*
X68770Y144664D01*
X71236Y147130D01*
X74457Y148464D01*
X77943Y148464D01*
X81164Y147130D01*
X83630Y144664D01*
X84964Y141443D01*
X84964Y137957D01*
X83630Y134736D01*
X81164Y132270D01*
X77943Y130936D01*
X74457Y130936D01*
G37*
%LPD*%
%LPC*%
G36*
X74457Y105536D02*
X74457Y105536D01*
X71236Y106870D01*
X68770Y109336D01*
X67436Y112557D01*
X67436Y116043D01*
X68770Y119264D01*
X71236Y121730D01*
X74457Y123064D01*
X77943Y123064D01*
X81164Y121730D01*
X83630Y119264D01*
X84964Y116043D01*
X84964Y112557D01*
X83630Y109336D01*
X81164Y106870D01*
X77943Y105536D01*
X74457Y105536D01*
G37*
%LPD*%
%LPC*%
G36*
X74457Y80136D02*
X74457Y80136D01*
X71236Y81470D01*
X68770Y83936D01*
X67436Y87157D01*
X67436Y90643D01*
X68770Y93864D01*
X71236Y96330D01*
X74457Y97664D01*
X77943Y97664D01*
X81164Y96330D01*
X83630Y93864D01*
X84964Y90643D01*
X84964Y87157D01*
X83630Y83936D01*
X81164Y81470D01*
X77943Y80136D01*
X74457Y80136D01*
G37*
%LPD*%
%LPC*%
G36*
X256657Y70236D02*
X256657Y70236D01*
X253436Y71570D01*
X250970Y74036D01*
X249636Y77257D01*
X249636Y80743D01*
X250970Y83964D01*
X253436Y86430D01*
X256657Y87764D01*
X260143Y87764D01*
X263364Y86430D01*
X265830Y83964D01*
X267164Y80743D01*
X267164Y77257D01*
X265830Y74036D01*
X263364Y71570D01*
X260143Y70236D01*
X256657Y70236D01*
G37*
%LPD*%
%LPC*%
G36*
X231257Y70236D02*
X231257Y70236D01*
X228036Y71570D01*
X225570Y74036D01*
X224236Y77257D01*
X224236Y80743D01*
X225570Y83964D01*
X228036Y86430D01*
X231257Y87764D01*
X234743Y87764D01*
X237964Y86430D01*
X240430Y83964D01*
X241764Y80743D01*
X241764Y77257D01*
X240430Y74036D01*
X237964Y71570D01*
X234743Y70236D01*
X231257Y70236D01*
G37*
%LPD*%
%LPC*%
G36*
X663057Y70236D02*
X663057Y70236D01*
X659836Y71570D01*
X657370Y74036D01*
X656036Y77257D01*
X656036Y80743D01*
X657370Y83964D01*
X659836Y86430D01*
X663057Y87764D01*
X666543Y87764D01*
X669764Y86430D01*
X672230Y83964D01*
X673564Y80743D01*
X673564Y77257D01*
X672230Y74036D01*
X669764Y71570D01*
X666543Y70236D01*
X663057Y70236D01*
G37*
%LPD*%
%LPC*%
G36*
X637657Y70236D02*
X637657Y70236D01*
X634436Y71570D01*
X631970Y74036D01*
X630636Y77257D01*
X630636Y80743D01*
X631970Y83964D01*
X634436Y86430D01*
X637657Y87764D01*
X641143Y87764D01*
X644364Y86430D01*
X646830Y83964D01*
X648164Y80743D01*
X648164Y77257D01*
X646830Y74036D01*
X644364Y71570D01*
X641143Y70236D01*
X637657Y70236D01*
G37*
%LPD*%
%LPC*%
G36*
X612257Y70236D02*
X612257Y70236D01*
X609036Y71570D01*
X606570Y74036D01*
X605236Y77257D01*
X605236Y80743D01*
X606570Y83964D01*
X609036Y86430D01*
X612257Y87764D01*
X615743Y87764D01*
X618964Y86430D01*
X621430Y83964D01*
X622764Y80743D01*
X622764Y77257D01*
X621430Y74036D01*
X618964Y71570D01*
X615743Y70236D01*
X612257Y70236D01*
G37*
%LPD*%
%LPC*%
G36*
X586857Y70236D02*
X586857Y70236D01*
X583636Y71570D01*
X581170Y74036D01*
X579836Y77257D01*
X579836Y80743D01*
X581170Y83964D01*
X583636Y86430D01*
X586857Y87764D01*
X590343Y87764D01*
X593564Y86430D01*
X596030Y83964D01*
X597364Y80743D01*
X597364Y77257D01*
X596030Y74036D01*
X593564Y71570D01*
X590343Y70236D01*
X586857Y70236D01*
G37*
%LPD*%
%LPC*%
G36*
X561457Y70236D02*
X561457Y70236D01*
X558236Y71570D01*
X555770Y74036D01*
X554436Y77257D01*
X554436Y80743D01*
X555770Y83964D01*
X558236Y86430D01*
X561457Y87764D01*
X564943Y87764D01*
X568164Y86430D01*
X570630Y83964D01*
X571964Y80743D01*
X571964Y77257D01*
X570630Y74036D01*
X568164Y71570D01*
X564943Y70236D01*
X561457Y70236D01*
G37*
%LPD*%
%LPC*%
G36*
X536057Y70236D02*
X536057Y70236D01*
X532836Y71570D01*
X530370Y74036D01*
X529036Y77257D01*
X529036Y80743D01*
X530370Y83964D01*
X532836Y86430D01*
X536057Y87764D01*
X539543Y87764D01*
X542764Y86430D01*
X545230Y83964D01*
X546564Y80743D01*
X546564Y77257D01*
X545230Y74036D01*
X542764Y71570D01*
X539543Y70236D01*
X536057Y70236D01*
G37*
%LPD*%
%LPC*%
G36*
X485257Y70236D02*
X485257Y70236D01*
X482036Y71570D01*
X479570Y74036D01*
X478236Y77257D01*
X478236Y80743D01*
X479570Y83964D01*
X482036Y86430D01*
X485257Y87764D01*
X488743Y87764D01*
X491964Y86430D01*
X494430Y83964D01*
X495764Y80743D01*
X495764Y77257D01*
X494430Y74036D01*
X491964Y71570D01*
X488743Y70236D01*
X485257Y70236D01*
G37*
%LPD*%
%LPC*%
G36*
X459857Y70236D02*
X459857Y70236D01*
X456636Y71570D01*
X454170Y74036D01*
X452836Y77257D01*
X452836Y80743D01*
X454170Y83964D01*
X456636Y86430D01*
X459857Y87764D01*
X463343Y87764D01*
X466564Y86430D01*
X469030Y83964D01*
X470364Y80743D01*
X470364Y77257D01*
X469030Y74036D01*
X466564Y71570D01*
X463343Y70236D01*
X459857Y70236D01*
G37*
%LPD*%
%LPC*%
G36*
X434457Y70236D02*
X434457Y70236D01*
X431236Y71570D01*
X428770Y74036D01*
X427436Y77257D01*
X427436Y80743D01*
X428770Y83964D01*
X431236Y86430D01*
X434457Y87764D01*
X437943Y87764D01*
X441164Y86430D01*
X443630Y83964D01*
X444964Y80743D01*
X444964Y77257D01*
X443630Y74036D01*
X441164Y71570D01*
X437943Y70236D01*
X434457Y70236D01*
G37*
%LPD*%
%LPC*%
G36*
X409057Y70236D02*
X409057Y70236D01*
X405836Y71570D01*
X403370Y74036D01*
X402036Y77257D01*
X402036Y80743D01*
X403370Y83964D01*
X405836Y86430D01*
X409057Y87764D01*
X412543Y87764D01*
X415764Y86430D01*
X418230Y83964D01*
X419564Y80743D01*
X419564Y77257D01*
X418230Y74036D01*
X415764Y71570D01*
X412543Y70236D01*
X409057Y70236D01*
G37*
%LPD*%
%LPC*%
G36*
X383657Y70236D02*
X383657Y70236D01*
X380436Y71570D01*
X377970Y74036D01*
X376636Y77257D01*
X376636Y80743D01*
X377970Y83964D01*
X380436Y86430D01*
X383657Y87764D01*
X387143Y87764D01*
X390364Y86430D01*
X392830Y83964D01*
X394164Y80743D01*
X394164Y77257D01*
X392830Y74036D01*
X390364Y71570D01*
X387143Y70236D01*
X383657Y70236D01*
G37*
%LPD*%
%LPC*%
G36*
X358257Y70236D02*
X358257Y70236D01*
X355036Y71570D01*
X352570Y74036D01*
X351236Y77257D01*
X351236Y80743D01*
X352570Y83964D01*
X355036Y86430D01*
X358257Y87764D01*
X361743Y87764D01*
X364964Y86430D01*
X367430Y83964D01*
X368764Y80743D01*
X368764Y77257D01*
X367430Y74036D01*
X364964Y71570D01*
X361743Y70236D01*
X358257Y70236D01*
G37*
%LPD*%
%LPC*%
G36*
X332857Y70236D02*
X332857Y70236D01*
X329636Y71570D01*
X327170Y74036D01*
X325836Y77257D01*
X325836Y80743D01*
X327170Y83964D01*
X329636Y86430D01*
X332857Y87764D01*
X336343Y87764D01*
X339564Y86430D01*
X342030Y83964D01*
X343364Y80743D01*
X343364Y77257D01*
X342030Y74036D01*
X339564Y71570D01*
X336343Y70236D01*
X332857Y70236D01*
G37*
%LPD*%
%LPC*%
G36*
X307457Y70236D02*
X307457Y70236D01*
X304236Y71570D01*
X301770Y74036D01*
X300436Y77257D01*
X300436Y80743D01*
X301770Y83964D01*
X304236Y86430D01*
X307457Y87764D01*
X310943Y87764D01*
X314164Y86430D01*
X316630Y83964D01*
X317964Y80743D01*
X317964Y77257D01*
X316630Y74036D01*
X314164Y71570D01*
X310943Y70236D01*
X307457Y70236D01*
G37*
%LPD*%
%LPC*%
G36*
X282057Y70236D02*
X282057Y70236D01*
X278836Y71570D01*
X276370Y74036D01*
X275036Y77257D01*
X275036Y80743D01*
X276370Y83964D01*
X278836Y86430D01*
X282057Y87764D01*
X285543Y87764D01*
X288764Y86430D01*
X291230Y83964D01*
X292564Y80743D01*
X292564Y77257D01*
X291230Y74036D01*
X288764Y71570D01*
X285543Y70236D01*
X282057Y70236D01*
G37*
%LPD*%
%LPC*%
G36*
X459857Y44836D02*
X459857Y44836D01*
X456636Y46170D01*
X454170Y48636D01*
X452836Y51857D01*
X452836Y55343D01*
X454170Y58564D01*
X456636Y61030D01*
X459857Y62364D01*
X463343Y62364D01*
X466564Y61030D01*
X469030Y58564D01*
X470364Y55343D01*
X470364Y51857D01*
X469030Y48636D01*
X466564Y46170D01*
X463343Y44836D01*
X459857Y44836D01*
G37*
%LPD*%
%LPC*%
G36*
X74457Y54736D02*
X74457Y54736D01*
X71236Y56070D01*
X68770Y58536D01*
X67436Y61757D01*
X67436Y65243D01*
X68770Y68464D01*
X71236Y70930D01*
X74457Y72264D01*
X77943Y72264D01*
X81164Y70930D01*
X83630Y68464D01*
X84964Y65243D01*
X84964Y61757D01*
X83630Y58536D01*
X81164Y56070D01*
X77943Y54736D01*
X74457Y54736D01*
G37*
%LPD*%
%LPC*%
G36*
X663057Y44836D02*
X663057Y44836D01*
X659836Y46170D01*
X657370Y48636D01*
X656036Y51857D01*
X656036Y55343D01*
X657370Y58564D01*
X659836Y61030D01*
X663057Y62364D01*
X666543Y62364D01*
X669764Y61030D01*
X672230Y58564D01*
X673564Y55343D01*
X673564Y51857D01*
X672230Y48636D01*
X669764Y46170D01*
X666543Y44836D01*
X663057Y44836D01*
G37*
%LPD*%
%LPC*%
G36*
X637657Y44836D02*
X637657Y44836D01*
X634436Y46170D01*
X631970Y48636D01*
X630636Y51857D01*
X630636Y55343D01*
X631970Y58564D01*
X634436Y61030D01*
X637657Y62364D01*
X641143Y62364D01*
X644364Y61030D01*
X646830Y58564D01*
X648164Y55343D01*
X648164Y51857D01*
X646830Y48636D01*
X644364Y46170D01*
X641143Y44836D01*
X637657Y44836D01*
G37*
%LPD*%
%LPC*%
G36*
X612257Y44836D02*
X612257Y44836D01*
X609036Y46170D01*
X606570Y48636D01*
X605236Y51857D01*
X605236Y55343D01*
X606570Y58564D01*
X609036Y61030D01*
X612257Y62364D01*
X615743Y62364D01*
X618964Y61030D01*
X621430Y58564D01*
X622764Y55343D01*
X622764Y51857D01*
X621430Y48636D01*
X618964Y46170D01*
X615743Y44836D01*
X612257Y44836D01*
G37*
%LPD*%
%LPC*%
G36*
X722355Y436735D02*
X722355Y436735D01*
X719502Y437917D01*
X717317Y440102D01*
X716135Y442955D01*
X716135Y446045D01*
X717317Y448898D01*
X719502Y451083D01*
X722355Y452265D01*
X725445Y452265D01*
X728298Y451083D01*
X730483Y448898D01*
X731665Y446045D01*
X731665Y442955D01*
X730483Y440102D01*
X728298Y437917D01*
X725445Y436735D01*
X722355Y436735D01*
G37*
%LPD*%
%LPC*%
G36*
X696955Y411335D02*
X696955Y411335D01*
X694102Y412517D01*
X691917Y414702D01*
X690735Y417555D01*
X690735Y420645D01*
X691917Y423498D01*
X694102Y425683D01*
X696955Y426865D01*
X700045Y426865D01*
X702898Y425683D01*
X705083Y423498D01*
X706265Y420645D01*
X706265Y417555D01*
X705083Y414702D01*
X702898Y412517D01*
X700045Y411335D01*
X696955Y411335D01*
G37*
%LPD*%
%LPC*%
G36*
X36988Y261111D02*
X36988Y261111D01*
X34934Y261962D01*
X33362Y263534D01*
X32511Y265588D01*
X32511Y267812D01*
X33362Y269866D01*
X34934Y271438D01*
X36988Y272289D01*
X39212Y272289D01*
X41266Y271438D01*
X42838Y269866D01*
X43689Y267812D01*
X43689Y265588D01*
X42838Y263534D01*
X41266Y261962D01*
X39212Y261111D01*
X36988Y261111D01*
G37*
%LPD*%
%LPC*%
G36*
X510222Y484822D02*
X510222Y484822D01*
X510222Y491093D01*
X510556Y491027D01*
X512151Y490366D01*
X513587Y489407D01*
X514807Y488187D01*
X515766Y486751D01*
X516427Y485156D01*
X516493Y484822D01*
X510222Y484822D01*
G37*
%LPD*%
%LPC*%
G36*
X154622Y472122D02*
X154622Y472122D01*
X154622Y478393D01*
X154956Y478327D01*
X156551Y477666D01*
X157987Y476707D01*
X159207Y475487D01*
X160166Y474051D01*
X160827Y472456D01*
X160893Y472122D01*
X154622Y472122D01*
G37*
%LPD*%
%LPC*%
G36*
X78422Y446722D02*
X78422Y446722D01*
X78422Y452993D01*
X78756Y452927D01*
X80351Y452266D01*
X81787Y451307D01*
X83007Y450087D01*
X83966Y448651D01*
X84627Y447056D01*
X84693Y446722D01*
X78422Y446722D01*
G37*
%LPD*%
%LPC*%
G36*
X154622Y65722D02*
X154622Y65722D01*
X154622Y71993D01*
X154956Y71927D01*
X156551Y71266D01*
X157987Y70307D01*
X159207Y69087D01*
X160166Y67651D01*
X160827Y66056D01*
X160893Y65722D01*
X154622Y65722D01*
G37*
%LPD*%
%LPC*%
G36*
X387622Y309822D02*
X387622Y309822D01*
X387622Y316093D01*
X387956Y316027D01*
X389551Y315366D01*
X390987Y314407D01*
X392207Y313187D01*
X393166Y311751D01*
X393827Y310156D01*
X393893Y309822D01*
X387622Y309822D01*
G37*
%LPD*%
%LPC*%
G36*
X514622Y81222D02*
X514622Y81222D01*
X514622Y87493D01*
X514956Y87427D01*
X516551Y86766D01*
X517987Y85807D01*
X519207Y84587D01*
X520166Y83151D01*
X520827Y81556D01*
X520893Y81222D01*
X514622Y81222D01*
G37*
%LPD*%
%LPC*%
G36*
X499507Y484822D02*
X499507Y484822D01*
X499573Y485156D01*
X500234Y486751D01*
X501193Y488187D01*
X502413Y489407D01*
X503849Y490366D01*
X505444Y491027D01*
X505778Y491093D01*
X505778Y484822D01*
X499507Y484822D01*
G37*
%LPD*%
%LPC*%
G36*
X510222Y480378D02*
X510222Y480378D01*
X516493Y480378D01*
X516427Y480044D01*
X515766Y478449D01*
X514807Y477013D01*
X513587Y475793D01*
X512151Y474834D01*
X510556Y474173D01*
X510222Y474107D01*
X510222Y480378D01*
G37*
%LPD*%
%LPC*%
G36*
X143907Y472122D02*
X143907Y472122D01*
X143973Y472456D01*
X144634Y474051D01*
X145593Y475487D01*
X146813Y476707D01*
X148249Y477666D01*
X149844Y478327D01*
X150178Y478393D01*
X150178Y472122D01*
X143907Y472122D01*
G37*
%LPD*%
%LPC*%
G36*
X154622Y467678D02*
X154622Y467678D01*
X160893Y467678D01*
X160827Y467344D01*
X160166Y465749D01*
X159207Y464313D01*
X157987Y463093D01*
X156551Y462134D01*
X154956Y461473D01*
X154622Y461407D01*
X154622Y467678D01*
G37*
%LPD*%
%LPC*%
G36*
X67707Y446722D02*
X67707Y446722D01*
X67773Y447056D01*
X68434Y448651D01*
X69393Y450087D01*
X70613Y451307D01*
X72049Y452266D01*
X73644Y452927D01*
X73978Y452993D01*
X73978Y446722D01*
X67707Y446722D01*
G37*
%LPD*%
%LPC*%
G36*
X78422Y442278D02*
X78422Y442278D01*
X84693Y442278D01*
X84627Y441944D01*
X83966Y440349D01*
X83007Y438913D01*
X81787Y437693D01*
X80351Y436734D01*
X78756Y436073D01*
X78422Y436007D01*
X78422Y442278D01*
G37*
%LPD*%
%LPC*%
G36*
X376907Y309822D02*
X376907Y309822D01*
X376973Y310156D01*
X377634Y311751D01*
X378593Y313187D01*
X379813Y314407D01*
X381249Y315366D01*
X382844Y316027D01*
X383178Y316093D01*
X383178Y309822D01*
X376907Y309822D01*
G37*
%LPD*%
%LPC*%
G36*
X514622Y76778D02*
X514622Y76778D01*
X520893Y76778D01*
X520827Y76444D01*
X520166Y74849D01*
X519207Y73413D01*
X517987Y72193D01*
X516551Y71234D01*
X514956Y70573D01*
X514622Y70507D01*
X514622Y76778D01*
G37*
%LPD*%
%LPC*%
G36*
X387622Y305378D02*
X387622Y305378D01*
X393893Y305378D01*
X393827Y305044D01*
X393166Y303449D01*
X392207Y302013D01*
X390987Y300793D01*
X389551Y299834D01*
X387956Y299173D01*
X387622Y299107D01*
X387622Y305378D01*
G37*
%LPD*%
%LPC*%
G36*
X154622Y61278D02*
X154622Y61278D01*
X160893Y61278D01*
X160827Y60944D01*
X160166Y59349D01*
X159207Y57913D01*
X157987Y56693D01*
X156551Y55734D01*
X154956Y55073D01*
X154622Y55007D01*
X154622Y61278D01*
G37*
%LPD*%
%LPC*%
G36*
X143907Y65722D02*
X143907Y65722D01*
X143973Y66056D01*
X144634Y67651D01*
X145593Y69087D01*
X146813Y70307D01*
X148249Y71266D01*
X149844Y71927D01*
X150178Y71993D01*
X150178Y65722D01*
X143907Y65722D01*
G37*
%LPD*%
%LPC*%
G36*
X503907Y81222D02*
X503907Y81222D01*
X503973Y81556D01*
X504634Y83151D01*
X505593Y84587D01*
X506813Y85807D01*
X508249Y86766D01*
X509844Y87427D01*
X510178Y87493D01*
X510178Y81222D01*
X503907Y81222D01*
G37*
%LPD*%
%LPC*%
G36*
X505444Y474173D02*
X505444Y474173D01*
X503849Y474834D01*
X502413Y475793D01*
X501193Y477013D01*
X500234Y478449D01*
X499573Y480044D01*
X499507Y480378D01*
X505778Y480378D01*
X505778Y474107D01*
X505444Y474173D01*
G37*
%LPD*%
%LPC*%
G36*
X149844Y461473D02*
X149844Y461473D01*
X148249Y462134D01*
X146813Y463093D01*
X145593Y464313D01*
X144634Y465749D01*
X143973Y467344D01*
X143907Y467678D01*
X150178Y467678D01*
X150178Y461407D01*
X149844Y461473D01*
G37*
%LPD*%
%LPC*%
G36*
X73644Y436073D02*
X73644Y436073D01*
X72049Y436734D01*
X70613Y437693D01*
X69393Y438913D01*
X68434Y440349D01*
X67773Y441944D01*
X67707Y442278D01*
X73978Y442278D01*
X73978Y436007D01*
X73644Y436073D01*
G37*
%LPD*%
%LPC*%
G36*
X382844Y299173D02*
X382844Y299173D01*
X381249Y299834D01*
X379813Y300793D01*
X378593Y302013D01*
X377634Y303449D01*
X376973Y305044D01*
X376907Y305378D01*
X383178Y305378D01*
X383178Y299107D01*
X382844Y299173D01*
G37*
%LPD*%
%LPC*%
G36*
X509844Y70573D02*
X509844Y70573D01*
X508249Y71234D01*
X506813Y72193D01*
X505593Y73413D01*
X504634Y74849D01*
X503973Y76444D01*
X503907Y76778D01*
X510178Y76778D01*
X510178Y70507D01*
X509844Y70573D01*
G37*
%LPD*%
%LPC*%
G36*
X149844Y55073D02*
X149844Y55073D01*
X148249Y55734D01*
X146813Y56693D01*
X145593Y57913D01*
X144634Y59349D01*
X143973Y60944D01*
X143907Y61278D01*
X150178Y61278D01*
X150178Y55007D01*
X149844Y55073D01*
G37*
%LPD*%
%LPC*%
G36*
X700349Y471749D02*
X700349Y471749D01*
X700349Y477449D01*
X700765Y477366D01*
X702178Y476781D01*
X703450Y475931D01*
X704531Y474850D01*
X705381Y473578D01*
X705966Y472165D01*
X706049Y471749D01*
X700349Y471749D01*
G37*
%LPD*%
%LPC*%
G36*
X690951Y471749D02*
X690951Y471749D01*
X691034Y472165D01*
X691619Y473578D01*
X692469Y474850D01*
X693550Y475931D01*
X694822Y476781D01*
X696235Y477366D01*
X696651Y477449D01*
X696651Y471749D01*
X690951Y471749D01*
G37*
%LPD*%
%LPC*%
G36*
X700349Y468051D02*
X700349Y468051D01*
X706049Y468051D01*
X705966Y467635D01*
X705381Y466222D01*
X704531Y464950D01*
X703450Y463869D01*
X702178Y463019D01*
X700765Y462434D01*
X700349Y462351D01*
X700349Y468051D01*
G37*
%LPD*%
%LPC*%
G36*
X696235Y462434D02*
X696235Y462434D01*
X694822Y463019D01*
X693550Y463869D01*
X692469Y464950D01*
X691619Y466222D01*
X691034Y467635D01*
X690951Y468051D01*
X696651Y468051D01*
X696651Y462351D01*
X696235Y462434D01*
G37*
%LPD*%
D10*
X482600Y482600D03*
X508000Y482600D03*
X533400Y482600D03*
D11*
X31750Y31750D03*
X31750Y476250D03*
X723900Y31750D03*
X609600Y476250D03*
D10*
X152400Y63500D03*
X152400Y38100D03*
X152400Y469900D03*
X152400Y444500D03*
D12*
X698500Y419100D03*
X723900Y444500D03*
X698500Y469900D03*
D10*
X76200Y444500D03*
X76200Y419100D03*
X76200Y393700D03*
X76200Y368300D03*
X76200Y342900D03*
X76200Y317500D03*
X76200Y292100D03*
X76200Y266700D03*
X76200Y241300D03*
X76200Y215900D03*
X76200Y190500D03*
X76200Y165100D03*
X76200Y139700D03*
X76200Y114300D03*
X76200Y88900D03*
X76200Y63500D03*
X76200Y38100D03*
X76200Y469900D03*
X664800Y333000D03*
X664800Y307600D03*
X639400Y333000D03*
X639400Y307600D03*
X614000Y333000D03*
X614000Y307600D03*
X588600Y333000D03*
X588600Y307600D03*
X563200Y333000D03*
X563200Y307600D03*
X537800Y333000D03*
X537800Y307600D03*
X512400Y333000D03*
X512400Y307600D03*
X487000Y333000D03*
X487000Y307600D03*
X461600Y333000D03*
X461600Y307600D03*
X436200Y333000D03*
X436200Y307600D03*
X410800Y333000D03*
X410800Y307600D03*
X385400Y333000D03*
X385400Y307600D03*
X360000Y333000D03*
X360000Y307600D03*
X334600Y333000D03*
X334600Y307600D03*
X309200Y333000D03*
X309200Y307600D03*
X283800Y333000D03*
X283800Y307600D03*
X258400Y333000D03*
X258400Y307600D03*
X233000Y333000D03*
X233000Y307600D03*
X664800Y79000D03*
X664800Y53600D03*
X639400Y79000D03*
X639400Y53600D03*
X614000Y79000D03*
X614000Y53600D03*
X588600Y79000D03*
X588600Y53600D03*
X563200Y79000D03*
X563200Y53600D03*
X537800Y79000D03*
X537800Y53600D03*
X512400Y79000D03*
X512400Y53600D03*
X487000Y79000D03*
X487000Y53600D03*
X461600Y79000D03*
X461600Y53600D03*
X436200Y79000D03*
X436200Y53600D03*
X410800Y79000D03*
X410800Y53600D03*
X385400Y79000D03*
X385400Y53600D03*
X360000Y79000D03*
X360000Y53600D03*
X334600Y79000D03*
X334600Y53600D03*
X309200Y79000D03*
X309200Y53600D03*
X283800Y79000D03*
X283800Y53600D03*
X258400Y79000D03*
X258400Y53600D03*
X233000Y79000D03*
X233000Y53600D03*
D13*
X38100Y228600D03*
X38100Y266700D03*
M02*
