G04 EAGLE Gerber RS-274X export*
G75*
%MOMM*%
%FSLAX34Y34*%
%LPD*%
%INSoldermask Bottom*%
%IPPOS*%
%AMOC8*
5,1,8,0,0,1.08239X$1,22.5*%
G01*
%ADD10R,1.803400X1.803400*%
%ADD11C,1.803400*%
%ADD12C,4.597400*%
%ADD13R,1.292400X1.292400*%
%ADD14C,1.292400*%
%ADD15R,1.676400X1.676400*%
%ADD16P,1.814519X8X202.500000*%


D10*
X482600Y482600D03*
D11*
X508000Y482600D03*
X533400Y482600D03*
D12*
X31750Y31750D03*
X31750Y476250D03*
X723900Y31750D03*
X609600Y476250D03*
D10*
X152400Y63500D03*
D11*
X152400Y38100D03*
D10*
X152400Y469900D03*
D11*
X152400Y444500D03*
D13*
X698500Y419100D03*
D14*
X723900Y444500D03*
X698500Y469900D03*
D11*
X76200Y444500D03*
X76200Y419100D03*
X76200Y393700D03*
X76200Y368300D03*
X76200Y342900D03*
X76200Y317500D03*
X76200Y292100D03*
X76200Y266700D03*
X76200Y241300D03*
X76200Y215900D03*
X76200Y190500D03*
X76200Y165100D03*
X76200Y139700D03*
X76200Y114300D03*
X76200Y88900D03*
X76200Y63500D03*
X76200Y38100D03*
X76200Y469900D03*
D15*
X664800Y333000D03*
D16*
X664800Y307600D03*
X639400Y333000D03*
X639400Y307600D03*
X614000Y333000D03*
X614000Y307600D03*
X588600Y333000D03*
X588600Y307600D03*
X563200Y333000D03*
X563200Y307600D03*
X537800Y333000D03*
X537800Y307600D03*
X512400Y333000D03*
X512400Y307600D03*
X487000Y333000D03*
X487000Y307600D03*
X461600Y333000D03*
X461600Y307600D03*
X436200Y333000D03*
X436200Y307600D03*
X410800Y333000D03*
X410800Y307600D03*
X385400Y333000D03*
X385400Y307600D03*
X360000Y333000D03*
X360000Y307600D03*
X334600Y333000D03*
X334600Y307600D03*
X309200Y333000D03*
X309200Y307600D03*
X283800Y333000D03*
X283800Y307600D03*
X258400Y333000D03*
X258400Y307600D03*
X233000Y333000D03*
X233000Y307600D03*
D15*
X664800Y79000D03*
D16*
X664800Y53600D03*
X639400Y79000D03*
X639400Y53600D03*
X614000Y79000D03*
X614000Y53600D03*
X588600Y79000D03*
X588600Y53600D03*
X563200Y79000D03*
X563200Y53600D03*
X537800Y79000D03*
X537800Y53600D03*
X512400Y79000D03*
X512400Y53600D03*
X487000Y79000D03*
X487000Y53600D03*
X461600Y79000D03*
X461600Y53600D03*
X436200Y79000D03*
X436200Y53600D03*
X410800Y79000D03*
X410800Y53600D03*
X385400Y79000D03*
X385400Y53600D03*
X360000Y79000D03*
X360000Y53600D03*
X334600Y79000D03*
X334600Y53600D03*
X309200Y79000D03*
X309200Y53600D03*
X283800Y79000D03*
X283800Y53600D03*
X258400Y79000D03*
X258400Y53600D03*
X233000Y79000D03*
X233000Y53600D03*
M02*
